# Blender v2.92.0 OBJ File: 'ea.blend'
# www.blender.org
mtllib jari.mtl
o Cube
v -0.693909 0.923555 0.347439
v -0.693909 0.923555 -0.024821
v -0.534551 0.000000 -0.024821
v -0.534551 0.000000 0.416692
v 0.796913 0.923555 0.347439
v 0.796913 0.923555 0.034610
v 0.780661 0.000000 -0.024821
v 0.780661 0.000000 0.416692
v -0.229037 0.923555 0.347439
v 0.283938 0.923555 0.347439
v 0.267686 0.000000 0.456369
v -0.140577 0.000000 0.456369
v -0.140577 0.000000 0.034916
v 0.267686 0.000000 0.034916
v 0.283938 0.923555 -0.024821
v -0.229037 0.923555 -0.024821
v -0.337564 0.000000 0.456369
v -0.485524 0.923555 -0.024821
v -0.485524 0.923555 0.347439
v -0.337564 0.000000 0.034916
v -0.750138 0.461777 0.416692
v -0.750138 0.461777 -0.024821
v 0.788787 0.461777 0.416692
v 0.788787 0.461777 -0.024821
v -0.237163 0.461777 0.001403
v 0.275812 0.461777 0.001403
v -0.237163 0.461777 0.456369
v 0.275812 0.461777 0.456369
v -0.493650 0.461777 0.456369
v -0.493650 0.461777 0.001403
v 1.505413 0.261125 -0.115754
v 1.505413 0.261125 0.224468
v 1.401540 0.617238 0.230237
v 1.401540 0.617238 -0.084920
v 0.540426 0.923555 0.347439
v 0.524174 0.000000 0.034916
v 0.524174 0.000000 0.456369
v 0.540426 0.923555 -0.024821
v 0.532300 0.461777 0.001403
v 0.532300 0.461777 0.456369
v 0.796913 1.736670 0.071259
v 0.796913 1.605544 -0.165911
v 0.540426 1.736670 0.071259
v 0.540426 1.605544 -0.165911
v 0.027451 0.923555 0.347439
v 0.056411 0.000000 0.456369
v 0.056411 0.000000 0.034916
v 0.027451 0.923555 -0.024821
v 0.019325 0.461777 0.456369
v 0.019325 0.461777 0.001403
v 0.283938 1.900926 -0.074834
v 0.283938 1.685044 -0.273135
v 0.027451 1.900926 -0.074834
v 0.027451 1.685044 -0.273135
v -0.229037 1.944661 -0.021488
v -0.229037 1.659291 -0.256517
v -0.485524 1.659291 -0.256517
v -0.485524 1.944661 -0.021488
v -0.960504 0.923555 0.347439
v -0.960504 0.923555 -0.024821
v -0.652962 0.000000 -0.024821
v -0.652962 0.000000 0.347439
v -0.968630 0.461777 0.347439
v -0.968630 0.461777 -0.024821
v -0.721869 1.216194 0.289866
v -0.723948 1.211354 0.027730
v -0.960504 1.216194 0.289866
v -0.960504 1.211354 0.027730
v 0.796913 1.204403 0.024825
v 0.796913 1.409764 -0.027424
v 0.540426 1.409764 -0.027424
v 0.540426 1.204403 0.024825
v 0.540426 1.204403 0.318080
v 0.540426 1.479075 0.238792
v 0.796913 1.479075 0.238792
v 0.796913 1.204403 0.318080
v 0.283938 1.249345 0.341115
v 0.283938 1.575136 0.213015
v 0.283938 1.511758 -0.125785
v 0.283938 1.249345 -0.001461
v 0.027451 1.511758 -0.125785
v 0.027451 1.249345 -0.001461
v 0.027451 1.575136 0.213015
v 0.027451 1.249345 0.341115
v 1.074790 0.490785 -0.019948
v 1.074790 0.490785 0.342567
v 1.156394 0.088653 -0.018423
v 1.156394 0.088653 0.341042
v -0.409432 -0.801953 -0.024821
v -0.409432 -0.801953 0.347439
v 0.595271 -0.801953 -0.024821
v 0.595271 -0.801953 0.347439
v 0.203404 -0.801953 0.347439
v -0.108472 -0.801953 0.347439
v -0.108472 -0.801953 -0.024821
v 0.203404 -0.801953 -0.024821
v -0.258952 -0.801953 0.347439
v -0.258952 -0.801953 -0.024821
v 0.399337 -0.801953 -0.024821
v 0.399337 -0.801953 0.347439
v 0.042009 -0.801953 0.347439
v 0.042009 -0.801953 -0.024821
v -0.499887 -0.801953 -0.024821
v -0.499887 -0.801953 0.347439
v -0.485524 1.216362 0.354506
v -0.485524 1.621070 0.203576
v -0.229037 1.621070 0.203576
v -0.229037 1.216362 0.354506
v -0.485524 1.216362 0.010225
v -0.485524 1.509169 -0.089144
v -0.229037 1.509169 -0.089144
v -0.229037 1.216362 0.010225
v -0.722518 1.734414 -0.004729
v -0.723948 1.573397 -0.163998
v -0.960504 1.734414 -0.004729
v -0.960504 1.573397 -0.163998
v -0.722166 1.586246 0.141270
v -0.723368 1.487890 -0.044826
v -0.960504 1.487890 -0.044826
v -0.960504 1.586246 0.141270
v -0.520867 -0.228496 -0.024821
v -0.426581 -0.228496 -0.024821
v -0.112872 -0.228496 0.017895
v -0.269726 -0.228496 0.017895
v -0.112872 -0.228496 0.425332
v 0.043983 -0.228496 0.425332
v -0.269726 -0.228496 0.425332
v -0.426581 -0.228496 0.396960
v 0.043983 -0.228496 0.017895
v 0.212214 -0.228496 0.017895
v 0.416447 -0.228496 0.017895
v 0.620679 -0.228496 -0.024821
v -0.520867 -0.228496 0.347439
v 0.212214 -0.228496 0.425332
v 0.416447 -0.228496 0.425332
v 0.620679 -0.228496 0.396960
v 0.796913 1.223284 0.020022
v 0.540426 1.223284 0.020022
v 0.540426 1.229656 0.310790
v 0.796913 1.229656 0.310790
v 0.796913 1.392275 -0.022974
v 0.540426 1.455684 0.245545
v 0.540426 1.392275 -0.022974
v 0.796913 1.455684 0.245545
v 0.283938 1.547379 0.223929
v 0.283938 1.489401 -0.115193
v 0.027451 1.489401 -0.115193
v 0.027451 1.547379 0.223929
v 0.283938 1.277921 -0.015000
v 0.027451 1.277921 -0.015000
v 0.027451 1.284823 0.327166
v 0.283938 1.284823 0.327166
v -0.485524 1.598345 0.212051
v -0.229037 1.598345 0.212051
v -0.485524 1.492727 -0.083564
v -0.229037 1.492727 -0.083564
v -0.229037 1.244393 0.344052
v -0.229037 1.236642 0.003342
v -0.485524 1.244393 0.344052
v -0.485524 1.236642 0.003342
v -0.723401 1.472429 -0.040769
v -0.960504 1.472429 -0.040769
v -0.960504 1.565558 0.149578
v -0.722150 1.565558 0.149578
v -0.723907 1.230918 0.022597
v -0.960504 1.230918 0.022597
v -0.960504 1.242374 0.279353
v -0.721890 1.242374 0.279353
v 1.106933 0.503225 -0.026340
v 1.190729 0.105620 -0.027998
v 1.190729 0.105620 0.329574
v 1.106933 0.503225 0.331517
vt 0.000000 1.000000
vt 0.000000 1.000000
vt 0.000000 1.000000
vt 0.000000 1.000000
vt 0.250000 0.000000
vt 0.500000 0.000000
vt 0.500000 0.840352
vt 0.250000 1.000000
vt 0.250000 0.000000
vt 0.500000 0.000000
vt 0.250000 1.000000
vt 0.000000 1.000000
vt 0.000000 1.000000
vt 0.500000 1.000000
vt 0.500000 1.000000
vt 0.500000 1.000000
vt 0.500000 1.000000
vt 0.000000 1.000000
vt 0.000000 1.000000
vt 0.000000 1.000000
vt 0.000000 1.000000
vt 0.000000 0.000000
vt 0.000000 0.000000
vt 0.000000 0.000000
vt 0.000000 0.000000
vt 0.000000 1.000000
vt 0.000000 1.000000
vt 0.000000 1.000000
vt 0.000000 1.000000
vt 0.500000 0.000000
vt 0.500000 0.000000
vt 0.500000 0.000000
vt 0.500000 0.000000
vt 0.500000 1.000000
vt 0.500000 0.000000
vt 0.500000 0.000000
vt 0.500000 1.000000
vt 0.250000 1.000000
vt 0.000000 1.000000
vt 0.000000 1.000000
vt 0.250000 1.000000
vt 0.250000 1.000000
vt 0.000000 1.000000
vt 0.000000 1.000000
vt 0.250000 1.000000
vt 0.250000 0.000000
vt 0.500000 0.000000
vt 0.500000 0.000000
vt 0.250000 0.000000
vt 0.250000 0.000000
vt 0.500000 0.000000
vt 0.500000 0.000000
vt 0.250000 0.000000
vt 0.250000 0.000000
vt 0.500000 0.000000
vt 0.250000 1.000000
vt 0.000000 1.000000
vt 0.500000 1.000000
vt 0.500000 1.000000
vt 0.000000 1.000000
vt 0.000000 1.000000
vt 0.000000 0.000000
vt 0.000000 0.000000
vt 0.000000 0.000000
vt 0.000000 0.000000
vt 0.000000 0.000000
vt 0.500000 1.000000
vt 0.500000 1.000000
vt 0.500000 1.000000
vt 0.500000 1.000000
vt 0.000000 0.000000
vt 0.000000 0.000000
vt 0.250000 0.010142
vt 0.250000 1.000000
vt 0.250000 1.000000
vt 0.250000 0.103093
vt 0.000000 0.000000
vt 0.250000 0.000000
vt 0.051144 0.021090
vt 0.051144 1.000000
vt 0.005031 1.000000
vt 0.005031 0.002075
vt 0.000000 1.000000
vt 0.000000 1.000000
vt 0.500000 0.000000
vt 0.500000 0.000000
vt 0.500000 0.081828
vt 0.500000 0.081827
vt 0.000000 0.000000
vt 0.000000 0.000000
vt 0.000000 0.000000
vt 0.000000 0.000000
vt 0.500000 0.000000
vt 0.500000 1.000000
vt 0.500000 1.000000
vt 0.500000 0.000000
vt 0.500000 1.000000
vt 0.500000 1.000000
vt 0.500000 1.000000
vt 0.500000 1.000000
vt 0.250000 1.000000
vt 0.500000 1.000000
vt 0.500000 0.000000
vt 0.000000 1.000000
vt 0.500000 0.876395
vt 0.500000 0.876395
vt 0.500000 0.631928
vt 0.500000 0.125387
vt 0.500000 0.273608
vt 0.500000 0.876395
vt 0.500000 0.000000
vt 0.500000 0.000000
vt 0.500000 1.000000
vt 0.500000 0.000000
vt 0.500000 1.000000
vt 0.500000 0.000000
vt 0.500000 0.000000
vt 0.500000 1.000000
vt 0.500000 0.000000
vt 0.500000 1.000000
vt 0.500000 1.000000
vt 0.500000 1.000000
vt 0.500000 0.000000
vt 0.500000 0.000000
vt 0.500000 0.000000
vt 0.500000 1.000000
vt 0.500000 1.000000
vt 0.500000 0.000000
vt 0.500000 0.000000
vt 0.500000 0.000000
vt 0.500000 1.000000
vt 0.500000 1.000000
vt 0.500000 1.000000
vt 0.500000 0.007523
vt 0.500000 0.007523
vt 0.500000 1.000000
vt 0.500000 1.000000
vt 0.500000 0.074859
vt 0.500000 0.074859
vt 0.500000 1.000000
vt 0.250000 0.000000
vt 0.000000 0.000000
vt 0.000000 1.000000
vt 0.250000 1.000000
vt 0.000000 0.000000
vt 0.000000 0.000000
vt 0.000000 0.000000
vt 0.000000 0.000000
vt 0.000000 0.000000
vt 0.000000 0.000000
vt 0.000000 0.000000
vt 0.000000 0.000000
vt 0.500000 0.273608
vt 0.500000 0.876395
vt 0.500000 0.631928
vt 0.500000 0.125387
vt 0.500000 0.118377
vt 0.500000 0.118377
vt 0.500000 0.645595
vt 0.500000 0.645595
vt 0.500000 0.008871
vt 0.500000 0.008871
vt 0.500000 0.859099
vt 0.500000 0.859099
vt 0.500000 1.000000
vt 0.500000 0.000000
vt 0.500000 0.000000
vt 0.500000 1.000000
vt 0.500000 1.000000
vt 0.500000 1.000000
vt 0.500000 0.000000
vt 0.500000 0.000000
vn 0.1061 -0.0409 0.9935
vn -0.9998 0.0176 0.0000
vn -0.0757 -0.1876 -0.9793
vn 0.1652 0.0329 0.9857
vn 0.0000 0.5775 0.8164
vn -0.0000 -0.0743 0.9972
vn 0.0913 0.1121 -0.9895
vn 0.0000 0.0000 1.0000
vn 0.0000 -0.5710 -0.8210
vn -1.0000 0.0000 0.0000
vn 0.0000 0.0724 0.9974
vn 0.0000 -0.2296 -0.9733
vn 0.0834 -0.1944 -0.9774
vn -0.1861 -0.0393 0.9817
vn 0.0000 -1.0000 0.0000
vn -0.1376 -0.0402 0.9897
vn -0.0563 0.0323 0.9979
vn 0.1720 0.0692 -0.9827
vn 0.0000 0.0000 -1.0000
vn 0.0000 0.0567 0.9984
vn -0.0646 -0.0347 0.9973
vn -0.1529 0.0027 -0.9882
vn 0.3609 -0.9326 0.0000
vn 0.3715 0.2137 -0.9035
vn -0.9600 -0.2800 0.0000
vn 0.2274 0.0146 0.9737
vn -0.4430 0.8965 0.0000
vn -0.2948 -0.0636 -0.9534
vn 0.0000 -0.8752 0.4839
vn 0.0000 -0.5452 -0.8383
vn 1.0000 0.0000 0.0000
vn 0.0000 0.1346 -0.9909
vn 0.0000 -0.6765 0.7365
vn 0.0000 0.6478 0.7618
vn 0.0000 -0.6621 -0.7494
vn 0.0000 -0.6357 0.7719
vn 0.0000 0.7444 0.6677
vn 0.9998 -0.0176 0.0000
vn 0.8255 0.5643 0.0000
vn 0.1408 -0.0838 -0.9865
vn 0.0000 -0.1796 0.9837
vn -1.0000 0.0025 0.0057
vn -0.9950 -0.0994 0.0040
vn 0.0000 -0.1930 -0.9812
vn 0.0000 0.9997 -0.0227
vn 0.0000 -0.1040 -0.9946
vn 0.0000 -0.9417 0.3365
vn -0.1148 -0.0703 0.9909
vn 0.0000 0.9341 -0.3571
vn 0.0000 -0.0194 -0.9998
vn 0.0000 0.9998 -0.0219
vn 0.0000 -0.0715 0.9974
vn 0.0000 -0.9732 0.2298
vn 0.0000 0.9677 -0.2520
vn -0.2179 -0.0168 -0.9758
vn -0.2296 0.9733 0.0000
vn -0.0171 0.0003 0.9999
vn 0.1009 -0.9949 0.0000
vn 0.0000 1.0000 0.0000
vn 0.2586 0.0502 -0.9647
vn 0.9993 0.0366 0.0000
vn -0.0703 0.1127 -0.9911
vn -0.9990 0.0443 0.0000
vn 0.0000 -0.1188 0.9929
vn 0.0000 0.0241 -0.9997
vn 0.0000 -0.7032 0.7110
vn 0.0000 0.8125 0.5830
vn 0.0000 -0.7019 -0.7123
vn -0.8192 0.5735 0.0000
vn -0.1434 0.1919 -0.9709
vn 0.8657 0.5005 0.0000
vn 0.4678 0.2819 -0.8377
vn -0.2753 -0.1413 0.9509
vn 0.1858 0.1788 -0.9662
vn 0.2142 -0.1614 0.9634
vn 0.0000 0.8841 -0.4673
vn 0.0000 -0.8983 0.4395
vn 0.0000 0.9990 -0.0446
vn 0.0000 -0.9998 0.0185
vn 0.0000 0.2466 0.9691
vn 0.0000 -0.2773 -0.9608
vn 0.0000 0.4282 0.9037
vn 0.0000 -0.3659 -0.9306
vn -0.0000 0.9829 -0.1839
vn 0.0000 -0.9857 0.1685
vn -0.0000 0.9998 -0.0202
vn 0.0000 -0.3494 -0.9370
vn 0.0000 0.3214 0.9470
vn 0.9785 0.2062 0.0000
vn -0.9800 -0.1989 0.0000
vn -1.0000 0.0027 0.0067
vn 0.0000 0.2538 0.9673
vn 0.0000 -0.3726 -0.9280
usemtl Material
s off
f 132/1/1 131/2/1 99/3/1 91/4/1
f 23/5/2 5/6/2 6/7/2 24/8/2
f 40/9/3 35/10/3 5/6/3 23/5/3
f 39/11/4 36/12/4 7/13/4 24/8/4
f 71/14/5 70/15/5 42/16/5 44/17/5
f 130/18/6 129/19/6 102/20/6 96/21/6
f 128/22/7 127/23/7 97/24/7 90/25/7
f 122/26/8 121/27/8 103/28/8 89/29/8
f 107/30/9 106/31/9 58/32/9 55/33/9
f 79/34/10 78/35/10 51/36/10 52/37/10
f 30/38/11 20/39/11 13/40/11 25/41/11
f 50/42/11 47/43/11 14/44/11 26/45/11
f 29/46/12 19/47/12 9/48/12 27/49/12
f 49/50/12 45/51/12 10/52/12 28/53/12
f 21/54/13 1/55/13 19/47/13 29/46/13
f 22/56/14 3/57/14 20/39/14 30/38/14
f 1/55/15 2/58/15 18/59/15 19/47/15
f 124/60/16 122/26/16 89/29/16 98/61/16
f 2/58/17 22/56/17 30/38/17 18/59/17
f 4/62/18 21/54/18 29/46/18 17/63/18
f 46/64/19 49/50/19 28/53/19 11/65/19
f 17/63/19 29/46/19 27/49/19 12/66/19
f 48/67/20 50/42/20 26/45/20 15/68/20
f 18/59/20 30/38/20 25/41/20 16/69/20
f 38/70/21 39/11/21 24/8/21 6/7/21
f 37/71/22 40/9/22 23/5/22 8/72/22
f 172/73/23 169/74/23 34/75/23 33/76/23
f 21/54/24 4/62/24 62/77/24 63/78/24
f 32/79/25 33/76/25 34/75/25 31/80/25
f 169/74/26 170/81/26 31/80/26 34/75/26
f 170/81/27 171/82/27 32/79/27 31/80/27
f 171/82/28 172/73/28 33/76/28 32/79/28
f 11/65/19 28/53/19 40/9/19 37/71/19
f 15/68/20 26/45/20 39/11/20 38/70/20
f 123/83/6 124/60/6 98/61/6 95/84/6
f 10/52/15 15/68/15 38/70/15 35/10/15
f 26/45/11 14/44/11 36/12/11 39/11/11
f 28/53/12 10/52/12 35/10/12 40/9/12
f 43/85/29 44/17/29 42/16/29 41/86/29
f 75/87/30 74/88/30 43/85/30 41/86/30
f 70/15/10 75/87/10 41/86/10 42/16/10
f 74/88/31 71/14/31 44/17/31 43/85/31
f 16/69/20 25/41/20 50/42/20 48/67/20
f 12/66/19 27/49/19 49/50/19 46/64/19
f 27/49/12 9/48/12 45/51/12 49/50/12
f 25/41/11 13/40/11 47/43/11 50/42/11
f 9/48/15 16/69/15 48/67/15 45/51/15
f 125/89/32 126/90/32 101/91/32 94/92/32
f 53/93/33 54/94/33 52/37/33 51/36/33
f 81/95/34 79/34/34 52/37/34 54/94/34
f 83/96/31 81/95/31 54/94/31 53/93/31
f 78/35/35 83/96/35 53/93/35 51/36/35
f 58/32/36 57/97/36 56/98/36 55/33/36
f 106/31/31 110/99/31 57/97/31 58/32/31
f 111/100/10 107/30/10 55/33/10 56/98/10
f 110/99/37 111/100/37 56/98/37 57/97/37
f 63/78/38 64/101/38 60/102/38 59/103/38
f 62/77/39 61/104/39 64/101/39 63/78/39
f 1/55/40 21/54/40 63/78/40 59/103/40
f 22/56/8 2/58/8 60/102/8 64/101/8
f 3/57/8 22/56/8 64/101/8 61/104/8
f 60/102/41 2/58/41 66/105/41 68/106/41
f 118/107/42 117/108/42 113/109/42 114/110/42
f 59/103/31 60/102/31 68/106/31 67/111/31
f 2/58/43 1/55/43 65/112/43 66/105/43
f 1/55/44 59/103/44 67/111/44 65/112/44
f 35/10/31 38/70/31 72/113/31 73/114/31
f 112/115/15 108/116/15 105/117/15 109/118/15
f 6/7/10 5/6/10 76/119/10 69/120/10
f 158/121/45 160/122/45 159/123/45 157/124/45
f 5/6/46 35/10/46 73/114/46 76/119/46
f 153/125/47 155/126/47 156/127/47 154/128/47
f 38/70/48 6/7/48 69/120/48 72/113/48
f 111/100/49 110/99/49 106/31/49 107/30/49
f 10/52/50 45/51/50 84/129/50 77/130/50
f 72/113/15 69/120/15 76/119/15 73/114/15
f 45/51/31 48/67/31 82/131/31 84/129/31
f 137/132/51 138/133/51 139/134/51 140/135/51
f 48/67/52 15/68/52 80/136/52 82/131/52
f 141/137/53 144/138/53 142/139/53 143/140/53
f 15/68/10 10/52/10 77/130/10 80/136/10
f 71/14/54 74/88/54 75/87/54 70/15/54
f 8/72/55 23/5/55 86/141/55 88/142/55
f 7/13/56 8/72/56 88/142/56 87/143/56
f 24/8/57 7/13/57 87/143/57 85/144/57
f 23/5/58 24/8/58 85/144/58 86/141/58
f 90/25/59 89/29/59 103/28/59 104/145/59
f 99/3/59 100/146/59 92/147/59 91/4/59
f 98/61/59 97/24/59 94/92/59 95/84/59
f 102/20/59 101/91/59 93/148/59 96/21/59
f 89/29/59 90/25/59 97/24/59 98/61/59
f 96/21/59 93/148/59 100/146/59 99/3/59
f 95/84/59 94/92/59 101/91/59 102/20/59
f 133/149/60 128/22/60 90/25/60 104/145/60
f 126/90/32 134/150/32 93/148/32 101/91/32
f 121/27/61 133/149/61 104/145/61 103/28/61
f 129/19/6 123/83/6 95/84/6 102/20/6
f 127/23/32 125/89/32 94/92/32 97/24/32
f 131/2/6 130/18/6 96/21/6 99/3/6
f 134/150/32 135/151/32 100/146/32 93/148/32
f 135/151/62 136/152/62 92/147/62 100/146/62
f 136/152/63 132/1/63 91/4/63 92/147/63
f 18/59/64 16/69/64 112/115/64 109/118/64
f 16/69/10 9/48/10 108/116/10 112/115/10
f 19/47/31 18/59/31 109/118/31 105/117/31
f 9/48/65 19/47/65 105/117/65 108/116/65
f 114/110/66 113/109/66 115/153/66 116/154/66
f 119/155/67 118/107/67 114/110/67 116/154/67
f 120/156/31 119/155/31 116/154/31 115/153/31
f 117/108/68 120/156/68 115/153/68 113/109/68
f 8/72/69 7/13/69 132/1/69 136/152/69
f 37/71/70 8/72/70 136/152/70 135/151/70
f 11/65/32 37/71/32 135/151/32 134/150/32
f 36/12/6 14/44/6 130/18/6 131/2/6
f 17/63/32 12/66/32 125/89/32 127/23/32
f 47/43/6 13/40/6 123/83/6 129/19/6
f 61/104/71 62/77/71 133/149/71 121/27/71
f 46/64/32 11/65/32 134/150/32 126/90/32
f 62/77/72 4/62/72 128/22/72 133/149/72
f 12/66/32 46/64/32 126/90/32 125/89/32
f 13/40/6 20/39/6 124/60/6 123/83/6
f 20/39/73 3/57/73 122/26/73 124/60/73
f 3/57/8 61/104/8 121/27/8 122/26/8
f 4/62/74 17/63/74 127/23/74 128/22/74
f 14/44/6 47/43/6 129/19/6 130/18/6
f 7/13/75 36/12/75 131/2/75 132/1/75
f 120/156/76 117/108/76 118/107/76 119/155/76
f 164/157/77 163/158/77 162/159/77 161/160/77
f 167/161/78 168/162/78 165/163/78 166/164/78
f 66/105/79 65/112/79 67/111/79 68/106/79
f 138/133/80 137/132/80 141/137/80 143/140/80
f 140/135/81 139/134/81 142/139/81 144/138/81
f 137/132/10 140/135/10 144/138/10 141/137/10
f 139/134/31 138/133/31 143/140/31 142/139/31
f 149/165/10 152/166/10 145/167/10 146/168/10
f 150/169/82 149/165/82 146/168/82 147/170/82
f 151/171/31 150/169/31 147/170/31 148/172/31
f 152/166/83 151/171/83 148/172/83 145/167/83
f 83/96/84 78/35/84 79/34/84 81/95/84
f 145/167/85 148/172/85 147/170/85 146/168/85
f 151/171/86 152/166/86 149/165/86 150/169/86
f 84/129/15 82/131/15 80/136/15 77/130/15
f 157/124/87 159/123/87 153/125/87 154/128/87
f 159/123/31 160/122/31 155/126/31 153/125/31
f 158/121/10 157/124/10 154/128/10 156/127/10
f 160/122/88 158/121/88 156/127/88 155/126/88
f 169/74/89 172/73/89 171/82/89 170/81/89
f 86/141/90 85/144/90 87/143/90 88/142/90
f 165/163/91 168/162/91 164/157/91 161/160/91
f 166/164/92 165/163/92 161/160/92 162/159/92
f 167/161/31 166/164/31 162/159/31 163/158/31
f 168/162/93 167/161/93 163/158/93 164/157/93
