# Blender v2.92.0 OBJ File: 'grafkomtubes3.blend'
# www.blender.org
mtllib modelorang.mtl
o Plane
v -0.392677 4.098669 -0.286764
v -0.392677 4.098669 -0.907048
v -0.392677 3.455099 -0.286764
v -0.392677 3.455099 -0.907048
v -0.778676 3.083726 -0.097045
v -0.778676 3.083726 -1.096767
v -0.704801 1.673473 -0.257150
v -0.704801 1.673473 -1.013621
v -0.904236 3.171130 -0.280482
v -0.904236 3.171130 -0.913330
v -0.858291 2.367512 -0.263996
v -0.858291 2.367512 -0.943490
v -1.277933 2.938367 -0.285993
v -1.277933 2.938367 -0.918841
v -1.259531 2.117592 -0.269914
v -1.259531 2.117592 -0.949407
v -1.823789 1.819035 -0.132769
v -1.823789 1.819035 -0.517231
v -1.749485 1.483332 -0.163658
v -1.749485 1.483332 -0.576457
v -0.786923 2.712796 -0.238390
v -0.786923 2.712796 -0.990336
v -1.230947 2.436228 -0.244938
v -1.230947 2.436228 -0.996884
v -1.806881 1.620792 -0.120122
v -1.806881 1.620792 -0.576937
v -0.392677 3.925659 -0.453514
v -0.392677 3.925659 -0.740298
v -0.392677 3.628109 -0.453514
v -0.392677 3.628109 -0.740298
v -0.686257 3.954846 -0.629896
v -0.686257 3.954846 -0.762010
v -0.686257 3.817772 -0.629896
v -0.686257 3.817772 -0.762010
v -0.823751 4.054892 -0.763056
v -0.823751 4.054892 -0.803902
v -0.823751 4.012512 -0.763056
v -0.823751 4.012512 -0.803902
v -0.334549 3.387066 -0.014924
v -0.334549 3.387066 -1.178888
v -0.334549 1.634980 -0.201332
v -0.334549 1.634980 -1.082082
v -0.778676 2.251445 -0.097045
v -0.778676 2.251445 -1.096767
v -0.334549 2.336552 -0.014924
v -0.334549 2.336552 -1.178888
v -0.704801 1.632849 -0.257150
v -0.704801 1.632849 -1.013621
v -0.169801 1.478872 -0.201332
v -0.169801 1.478872 -1.082082
v -0.731982 0.655676 -0.134338
v -0.731982 0.655676 -0.579165
v -0.233232 0.602362 -0.096305
v -0.233232 0.602362 -0.625813
v -0.780616 -0.362147 -0.283497
v -0.780616 -0.362147 -0.657739
v -0.549075 -0.386219 -0.248591
v -0.549075 -0.386219 -0.700552
v -0.811720 -0.402267 -0.224607
v -0.811720 -0.402267 -0.715398
v -0.508072 -0.433836 -0.178830
v -0.508072 -0.433836 -0.771544
v -0.853404 -0.803210 -0.224607
v -0.853404 -0.803210 -0.715398
v -0.549756 -0.834779 -0.178830
v -0.549756 -0.834779 -0.771544
v -0.528241 -0.627842 -0.771544
v -0.528241 -0.627842 -0.178830
v -0.831890 -0.596273 -0.715398
v -0.831890 -0.596273 -0.224607
v -0.781143 -0.749894 -0.061798
v -0.654098 -0.763102 -0.042646
v -0.645096 -0.676522 -0.042646
v -0.772141 -0.663313 -0.061798
v -1.623959 1.506032 -0.762270
v -1.623959 1.506032 -0.082777
v -1.728683 2.104012 -0.043259
v -1.728683 2.104012 -0.676108
v -1.697608 1.747933 -0.770963
v -1.697608 1.747933 -0.019016
v -0.229816 0.649568 -0.650386
v -0.229816 0.649568 -0.101961
v -0.730518 0.708302 -0.602563
v -0.730518 0.708302 -0.140952
v 0.392677 4.098669 -0.286764
v 0.000000 4.171731 -0.216346
v 0.392677 4.098669 -0.907048
v 0.000000 4.171731 -0.977466
v 0.392677 3.455099 -0.286764
v 0.000000 3.382037 -0.216346
v 0.392677 3.455099 -0.907048
v 0.000000 3.382037 -0.977466
v 0.778676 3.083726 -0.097045
v 0.000000 3.349978 0.067197
v 0.778676 3.083726 -1.096767
v 0.000000 3.349978 -1.261009
v 0.704801 1.673473 -0.257150
v 0.000000 1.539948 -0.145514
v 0.704801 1.673473 -1.013621
v 0.000000 1.539948 -1.150543
v 0.904236 3.171130 -0.280482
v 0.904236 3.171130 -0.913330
v 0.858291 2.367512 -0.263996
v 0.858291 2.367512 -0.943490
v 1.277933 2.938367 -0.285993
v 1.277933 2.938367 -0.918841
v 1.259531 2.117592 -0.269914
v 1.259531 2.117592 -0.949407
v 1.823789 1.819035 -0.132769
v 1.823789 1.819035 -0.517231
v 1.749485 1.483332 -0.163658
v 1.749485 1.483332 -0.576457
v 0.786923 2.712796 -0.238390
v 0.786923 2.712796 -0.990336
v 1.230947 2.436228 -0.244938
v 1.230947 2.436228 -0.996884
v 1.806881 1.620792 -0.120122
v 1.806881 1.620792 -0.576937
v 0.392677 3.925659 -0.453514
v 0.392677 3.925659 -0.740298
v 0.392677 3.628109 -0.453514
v 0.392677 3.628109 -0.740298
v 0.686257 3.954846 -0.629896
v 0.686257 3.954846 -0.762010
v 0.686257 3.817772 -0.629896
v 0.686257 3.817772 -0.762010
v 0.823751 4.054892 -0.763056
v 0.823751 4.054892 -0.803902
v 0.823751 4.012512 -0.763056
v 0.823751 4.012512 -0.803902
v 0.334549 3.387066 -0.014924
v 0.334549 3.387066 -1.178888
v 0.334549 1.634980 -0.201332
v 0.334549 1.634980 -1.082082
v 0.778676 2.251445 -0.097045
v 0.778676 2.251445 -1.096767
v 0.000000 2.251445 -1.261009
v 0.000000 2.251445 0.067197
v 0.334549 2.336552 -0.014924
v 0.334549 2.336552 -1.178888
v 0.704801 1.632849 -0.257150
v 0.704801 1.632849 -1.013621
v 0.169801 1.478872 -0.201332
v 0.169801 1.478872 -1.082082
v 0.731982 0.655676 -0.134338
v 0.731982 0.655676 -0.579165
v 0.233232 0.602362 -0.096305
v 0.233232 0.602362 -0.625813
v 0.780616 -0.362147 -0.283497
v 0.780616 -0.362147 -0.657739
v 0.549075 -0.386219 -0.248591
v 0.549075 -0.386219 -0.700552
v 0.811720 -0.402267 -0.224607
v 0.811720 -0.402267 -0.715398
v 0.508072 -0.433836 -0.178830
v 0.508072 -0.433836 -0.771544
v 0.853404 -0.803210 -0.224607
v 0.853404 -0.803210 -0.715398
v 0.549756 -0.834779 -0.178830
v 0.549756 -0.834779 -0.771544
v 0.528241 -0.627842 -0.771544
v 0.528241 -0.627842 -0.178830
v 0.831890 -0.596273 -0.715398
v 0.831890 -0.596273 -0.224607
v 0.781143 -0.749894 -0.061798
v 0.654098 -0.763102 -0.042646
v 0.645096 -0.676522 -0.042646
v 0.772141 -0.663313 -0.061798
v 1.623959 1.506032 -0.762270
v 1.623959 1.506032 -0.082777
v 1.728683 2.104012 -0.043259
v 1.728683 2.104012 -0.676108
v 1.697608 1.747933 -0.770963
v 1.697608 1.747933 -0.019016
v 0.229816 0.649568 -0.650386
v 0.229816 0.649568 -0.101961
v 0.730518 0.708302 -0.602563
v 0.730518 0.708302 -0.140952
vt 0.000000 0.000000
vt 0.000000 1.000000
vt 1.000000 1.000000
vt 1.000000 0.000000
vt 0.000000 0.000000
vt 1.000000 0.000000
vt 1.000000 1.000000
vt 0.000000 1.000000
vt 0.000000 0.000000
vt 0.000000 0.000000
vt 0.500000 0.000000
vt 0.500000 1.000000
vt 1.000000 1.000000
vt 1.000000 0.000000
vt 0.500000 0.092340
vt 1.000000 0.092340
vt 1.000000 1.000000
vt 0.500000 1.000000
vt 0.000000 1.000000
vt 0.000000 0.000000
vt 0.000000 0.092340
vt 0.000000 1.000000
vt 0.500000 1.000000
vt 0.500000 0.000000
vt 1.000000 0.000000
vt 0.000000 1.000000
vt 0.000000 1.000000
vt 0.000000 0.000000
vt 0.000000 0.000000
vt 0.000000 0.000000
vt 0.000000 1.000000
vt 0.000000 1.000000
vt 0.000000 0.000000
vt 0.000000 1.000000
vt 0.000000 1.000000
vt 0.000000 1.000000
vt 0.000000 1.000000
vt 0.000000 0.000000
vt 0.000000 0.000000
vt 0.000000 0.000000
vt 0.000000 0.000000
vt 0.000000 1.000000
vt 0.000000 0.000000
vt 0.000000 0.000000
vt 0.000000 1.000000
vt 0.000000 0.000000
vt 0.000000 0.000000
vt 0.000000 1.000000
vt 0.000000 1.000000
vt 0.000000 0.000000
vt 0.000000 0.000000
vt 0.000000 1.000000
vt 0.000000 1.000000
vt 0.000000 1.000000
vt 0.000000 1.000000
vt 0.000000 1.000000
vt 0.000000 1.000000
vt 0.000000 0.000000
vt 0.000000 0.000000
vt 1.000000 1.000000
vt 0.000000 0.000000
vt 0.000000 1.000000
vt 0.000000 0.092340
vt 0.000000 1.000000
vt 0.500000 1.000000
vt 0.500000 0.092340
vt 0.500000 0.092340
vt 0.500000 1.000000
vt 0.500000 1.000000
vt 0.500000 0.092340
vt 0.000000 0.092340
vt 0.000000 1.000000
vt 0.000000 1.000000
vt 0.000000 0.092340
vt 0.000000 0.092340
vt 0.000000 1.000000
vt 0.500000 1.000000
vt 0.500000 0.092340
vt 0.000000 0.092340
vt 0.500000 0.092340
vt 0.500000 1.000000
vt 0.000000 1.000000
vt 0.500000 0.092340
vt 0.500000 1.000000
vt 0.000000 1.000000
vt 0.000000 0.092340
vt 0.500000 0.092340
vt 0.000000 0.092340
vt 0.000000 0.092340
vt 0.500000 0.092340
vt 0.000000 0.092340
vt 0.000000 1.000000
vt 0.500000 0.092340
vt 0.500000 1.000000
vt 0.000000 0.000000
vt 0.000000 1.000000
vt 0.000000 0.000000
vt 0.000000 1.000000
vt 0.000000 0.000000
vt 0.000000 0.000000
vt 0.500000 0.000000
vt 0.500000 1.000000
vt 0.500000 0.092340
vt 0.500000 1.000000
vt 0.000000 1.000000
vt 0.000000 1.000000
vt 0.000000 0.092340
vt 0.000000 0.000000
vt 0.500000 1.000000
vt 0.500000 0.000000
vt 0.000000 1.000000
vt 0.000000 0.000000
vt 0.000000 0.000000
vt 0.000000 1.000000
vt 0.000000 0.000000
vt 0.000000 0.000000
vt 0.000000 1.000000
vt 0.000000 1.000000
vt 0.000000 1.000000
vt 0.000000 1.000000
vt 0.000000 1.000000
vt 0.000000 0.000000
vt 0.000000 1.000000
vt 0.000000 0.000000
vt 0.000000 0.000000
vt 0.000000 0.000000
vt 0.000000 1.000000
vt 0.000000 0.000000
vt 0.000000 0.000000
vt 0.000000 1.000000
vt 0.000000 1.000000
vt 0.000000 0.000000
vt 0.000000 0.000000
vt 0.000000 1.000000
vt 0.000000 0.000000
vt 0.000000 0.000000
vt 0.000000 1.000000
vt 0.000000 1.000000
vt 0.000000 1.000000
vt 0.000000 1.000000
vt 0.000000 1.000000
vt 0.000000 1.000000
vt 0.000000 0.000000
vt 0.000000 0.000000
vt 0.000000 0.000000
vt 0.000000 1.000000
vt 0.000000 0.092340
vt 0.500000 0.092340
vt 0.500000 1.000000
vt 0.000000 1.000000
vt 0.500000 0.092340
vt 0.500000 0.092340
vt 0.500000 1.000000
vt 0.500000 1.000000
vt 0.000000 0.092340
vt 0.000000 1.000000
vt 0.000000 1.000000
vt 0.000000 0.092340
vt 0.000000 0.092340
vt 0.500000 0.092340
vt 0.500000 1.000000
vt 0.000000 1.000000
vt 0.000000 0.092340
vt 0.000000 1.000000
vt 0.500000 1.000000
vt 0.500000 0.092340
vt 0.500000 0.092340
vt 0.500000 1.000000
vt 0.000000 1.000000
vt 0.500000 0.092340
vt 0.000000 0.092340
vt 0.000000 0.092340
vt 0.000000 0.092340
vt 0.500000 0.092340
vt 0.000000 1.000000
vt 0.000000 0.092340
vt 0.500000 0.092340
vt 0.500000 1.000000
vn 0.1829 -0.9831 0.0000
vn 0.1829 0.9831 0.0000
vn 1.0000 0.0000 0.0000
vn 0.1765 0.0000 0.9843
vn 0.1765 0.0000 -0.9843
vn -0.1102 -0.9939 0.0000
vn 0.2732 0.9619 0.0000
vn 0.9919 0.1268 0.0000
vn 0.1717 0.1469 0.9741
vn 0.2621 0.2623 -0.9287
vn -0.9793 0.2024 0.0000
vn -0.1779 0.9840 0.0000
vn 0.0765 -0.1461 0.9863
vn -0.5287 0.8488 0.0000
vn -0.0359 0.0813 -0.9960
vn 0.5287 -0.8488 0.0000
vn 0.9228 0.3853 0.0000
vn 0.4059 0.3758 -0.8331
vn 0.9486 -0.3166 0.0000
vn 0.8886 -0.0502 0.4560
vn 0.7641 0.2780 0.5820
vn 0.6723 0.0089 -0.7402
vn 0.9964 0.0850 0.0000
vn 0.0618 -0.0756 -0.9952
vn -0.1118 0.1563 0.9814
vn -0.9688 -0.2480 0.0000
vn 0.5150 0.0000 -0.8572
vn -0.2915 0.0000 0.9566
vn -0.0989 -0.9951 0.0000
vn -0.0738 0.0000 0.9973
vn 0.5426 0.8400 0.0000
vn 0.8169 0.5768 0.0000
vn 0.6957 0.0000 -0.7183
vn -0.5884 -0.8086 0.0000
vn 0.1461 0.2664 -0.9527
vn 0.2532 0.1404 0.9572
vn 0.1034 0.9946 0.0000
vn 0.5640 -0.8258 0.0000
vn 0.2384 0.0000 0.9712
vn 0.1818 0.0000 -0.9833
vn 0.2384 0.0000 -0.9712
vn 0.1818 0.0000 0.9833
vn -0.2766 -0.9610 0.0000
vn -0.9526 0.3043 0.0000
vn 0.1110 -0.0958 0.9892
vn 0.1120 0.1277 -0.9855
vn 0.9989 -0.0477 0.0000
vn -0.1034 -0.9946 0.0000
vn -0.9946 0.1034 0.0000
vn 0.1799 -0.0187 0.9835
vn 0.1508 0.9177 -0.3675
vn 0.9946 -0.1034 0.0000
vn 0.1475 -0.0153 -0.9889
vn -0.0412 -0.9291 -0.3675
vn 0.9211 -0.0958 -0.3775
vn -0.7704 0.0801 -0.6325
vn -0.3153 -0.1005 -0.9437
vn 0.2873 0.1183 0.9505
vn 0.5884 -0.1079 0.8013
vn 0.8798 -0.4753 0.0000
vn -0.5496 0.0873 -0.8309
vn -0.8590 0.5119 0.0000
vn 0.9996 -0.0278 0.0000
vn 0.0650 -0.1249 -0.9900
vn 0.1857 0.4182 0.8892
vn -0.9974 0.0722 0.0000
vn 0.1165 0.9932 -0.0000
vn -0.1063 -0.9943 0.0000
vn -0.1829 -0.9831 0.0000
vn -0.1829 0.9831 0.0000
vn -1.0000 0.0000 0.0000
vn -0.1765 0.0000 0.9843
vn -0.1765 0.0000 -0.9843
vn 0.1102 -0.9939 0.0000
vn -0.2732 0.9619 0.0000
vn -0.9919 0.1268 0.0000
vn -0.1717 0.1469 0.9741
vn -0.2621 0.2623 -0.9287
vn 0.9793 0.2024 0.0000
vn 0.1779 0.9840 0.0000
vn -0.0765 -0.1461 0.9863
vn 0.5287 0.8488 0.0000
vn 0.0359 0.0813 -0.9960
vn -0.5287 -0.8488 0.0000
vn -0.9228 0.3853 0.0000
vn -0.4059 0.3758 -0.8331
vn -0.9486 -0.3166 0.0000
vn -0.8886 -0.0502 0.4560
vn -0.7641 0.2780 0.5820
vn -0.6723 0.0089 -0.7402
vn -0.9964 0.0850 0.0000
vn -0.0618 -0.0756 -0.9952
vn 0.1118 0.1563 0.9814
vn 0.9688 -0.2480 0.0000
vn -0.5150 0.0000 -0.8572
vn 0.2915 0.0000 0.9566
vn 0.0989 -0.9951 0.0000
vn 0.0738 0.0000 0.9973
vn -0.5426 0.8400 0.0000
vn -0.8169 0.5768 0.0000
vn -0.6957 0.0000 -0.7183
vn 0.5884 -0.8086 0.0000
vn -0.1461 0.2664 -0.9527
vn -0.2532 0.1404 0.9572
vn -0.1034 0.9946 0.0000
vn -0.5640 -0.8258 0.0000
vn -0.2384 0.0000 0.9712
vn -0.1818 0.0000 -0.9833
vn -0.2384 0.0000 -0.9712
vn -0.1818 0.0000 0.9833
vn 0.2766 -0.9610 0.0000
vn 0.9526 0.3043 0.0000
vn -0.1110 -0.0958 0.9892
vn -0.1120 0.1277 -0.9855
vn -0.9989 -0.0477 0.0000
vn 0.1034 -0.9946 0.0000
vn 0.9946 0.1034 0.0000
vn -0.1799 -0.0187 0.9835
vn -0.1508 0.9177 -0.3675
vn -0.9946 -0.1034 0.0000
vn -0.1475 -0.0153 -0.9889
vn 0.0412 -0.9291 -0.3675
vn -0.9211 -0.0958 -0.3775
vn 0.7704 0.0801 -0.6325
vn 0.3153 -0.1005 -0.9437
vn -0.2873 0.1183 0.9505
vn -0.5884 -0.1079 0.8013
vn -0.8798 -0.4753 0.0000
vn 0.5496 0.0873 -0.8309
vn 0.8590 0.5119 0.0000
vn -0.9996 -0.0278 0.0000
vn -0.0650 -0.1249 -0.9900
vn -0.1857 0.4182 0.8892
vn 0.9974 0.0722 0.0000
vn -0.1165 0.9932 -0.0000
vn 0.1063 -0.9943 0.0000
usemtl None
s off
f 1/1/1 2/2/1 88/3/1 86/4/1
f 3/5/2 90/6/2 92/7/2 4/8/2
f 1/1/3 3/5/3 29/9/3 27/10/3
f 88/3/4 2/2/4 4/8/4 92/7/4
f 1/1/5 86/4/5 90/6/5 3/5/5
f 39/11/6 40/12/6 96/13/6 94/14/6
f 41/15/7 98/16/7 100/17/7 42/18/7
f 44/19/8 43/20/8 7/21/8 8/22/8
f 46/23/9 44/19/9 8/22/9 42/18/9
f 45/24/10 138/25/10 98/16/10 41/15/10
f 22/26/11 12/27/11 11/28/11 21/29/11
f 76/30/12 75/31/12 20/32/12 19/33/12
f 22/26/13 10/34/13 14/35/13 24/36/13
f 11/28/14 12/27/14 16/37/14 15/38/14
f 21/29/15 11/28/15 15/38/15 23/39/15
f 10/34/16 9/40/16 13/41/16 14/35/16
f 26/42/17 25/43/17 19/33/17 20/32/17
f 80/44/18 76/30/18 19/33/18 25/43/18
f 78/45/19 77/46/19 17/47/19 18/48/19
f 79/49/20 78/45/20 18/48/20 26/42/20
f 75/31/21 79/49/21 26/42/21 20/32/21
f 77/46/22 80/44/22 25/43/22 17/47/22
f 18/48/23 17/47/23 25/43/23 26/42/23
f 9/40/24 21/29/24 23/39/24 13/41/24
f 12/27/25 22/26/25 24/36/25 16/37/25
f 10/34/26 22/26/26 21/29/26 9/40/26
f 27/10/27 29/9/27 33/50/27 31/51/27
f 3/5/3 4/8/3 30/52/3 29/9/3
f 2/2/3 1/1/3 27/10/3 28/53/3
f 4/8/3 2/2/3 28/53/3 30/52/3
f 34/54/28 32/55/28 36/56/28 38/57/28
f 28/53/29 27/10/29 31/51/29 32/55/29
f 30/52/30 28/53/30 32/55/30 34/54/30
f 29/9/31 30/52/31 34/54/31 33/50/31
f 36/56/3 35/58/3 37/59/3 38/57/3
f 33/50/32 34/54/32 38/57/32 37/59/32
f 31/51/33 33/50/33 37/59/33 35/58/33
f 32/55/34 31/51/34 35/58/34 36/56/34
f 43/20/35 45/24/35 41/15/35 7/21/35
f 137/60/36 46/23/36 42/18/36 100/17/36
f 7/21/37 41/15/37 42/18/37 8/22/37
f 5/61/38 6/62/38 40/12/38 39/11/38
f 96/13/39 40/12/39 46/23/39 137/60/39
f 5/61/40 39/11/40 45/24/40 43/20/40
f 39/11/41 94/14/41 138/25/41 45/24/41
f 40/12/42 6/62/42 44/19/42 46/23/42
f 6/62/3 5/61/3 43/20/3 44/19/3
f 47/63/43 48/64/43 50/65/43 49/66/43
f 53/67/44 54/68/44 58/69/44 57/70/44
f 55/71/37 57/70/37 58/69/37 56/72/37
f 54/68/45 52/73/45 56/72/45 58/69/45
f 51/74/46 53/67/46 57/70/46 55/71/46
f 52/73/47 51/74/47 55/71/47 56/72/47
f 59/75/48 60/76/48 62/77/48 61/78/48
f 63/79/37 65/80/37 66/81/37 64/82/37
f 68/83/49 67/84/49 66/81/49 65/80/49
f 67/84/50 69/85/50 64/82/50 66/81/50
f 65/80/51 63/79/51 71/86/51 72/87/51
f 69/85/52 70/88/52 63/79/52 64/82/52
f 60/76/52 59/75/52 70/88/52 69/85/52
f 59/75/53 61/78/53 68/83/53 70/88/53
f 62/77/50 60/76/50 69/85/50 67/84/50
f 61/78/49 62/77/49 67/84/49 68/83/49
f 74/89/53 73/90/53 72/87/53 71/86/53
f 70/88/54 68/83/54 73/90/54 74/89/54
f 63/79/55 70/88/55 74/89/55 71/86/55
f 68/83/56 65/80/56 72/87/56 73/90/56
f 13/41/57 23/39/57 80/44/57 77/46/57
f 16/37/58 24/36/58 79/49/58 75/31/58
f 24/36/59 14/35/59 78/45/59 79/49/59
f 14/35/60 13/41/60 77/46/60 78/45/60
f 23/39/61 15/38/61 76/30/61 80/44/61
f 15/38/62 16/37/62 75/31/62 76/30/62
f 48/64/63 47/63/63 84/91/63 83/92/63
f 47/63/64 49/66/64 82/93/64 84/91/64
f 50/65/65 48/64/65 83/92/65 81/94/65
f 49/66/66 50/65/66 81/94/66 82/93/66
f 84/91/67 82/93/67 81/94/67 83/92/67
f 52/73/68 54/68/68 53/67/68 51/74/68
f 85/95/69 86/4/69 88/3/69 87/96/69
f 89/97/70 91/98/70 92/7/70 90/6/70
f 85/95/71 119/99/71 121/100/71 89/97/71
f 88/3/72 92/7/72 91/98/72 87/96/72
f 85/95/73 89/97/73 90/6/73 86/4/73
f 131/101/74 94/14/74 96/13/74 132/102/74
f 133/103/75 134/104/75 100/17/75 98/16/75
f 136/105/76 99/106/76 97/107/76 135/108/76
f 140/109/77 134/104/77 99/106/77 136/105/77
f 139/110/78 133/103/78 98/16/78 138/25/78
f 114/111/79 113/112/79 103/113/79 104/114/79
f 170/115/80 111/116/80 112/117/80 169/118/80
f 114/111/81 116/119/81 106/120/81 102/121/81
f 103/113/82 107/122/82 108/123/82 104/114/82
f 113/112/83 115/124/83 107/122/83 103/113/83
f 102/121/84 106/120/84 105/125/84 101/126/84
f 118/127/85 112/117/85 111/116/85 117/128/85
f 174/129/86 117/128/86 111/116/86 170/115/86
f 172/130/87 110/131/87 109/132/87 171/133/87
f 173/134/88 118/127/88 110/131/88 172/130/88
f 169/118/89 112/117/89 118/127/89 173/134/89
f 171/133/90 109/132/90 117/128/90 174/129/90
f 110/131/91 118/127/91 117/128/91 109/132/91
f 101/126/92 105/125/92 115/124/92 113/112/92
f 104/114/93 108/123/93 116/119/93 114/111/93
f 102/121/94 101/126/94 113/112/94 114/111/94
f 119/99/95 123/135/95 125/136/95 121/100/95
f 89/97/71 121/100/71 122/137/71 91/98/71
f 87/96/71 120/138/71 119/99/71 85/95/71
f 91/98/71 122/137/71 120/138/71 87/96/71
f 126/139/96 130/140/96 128/141/96 124/142/96
f 120/138/97 124/142/97 123/135/97 119/99/97
f 122/137/98 126/139/98 124/142/98 120/138/98
f 121/100/99 125/136/99 126/139/99 122/137/99
f 128/141/71 130/140/71 129/143/71 127/144/71
f 125/136/100 129/143/100 130/140/100 126/139/100
f 123/135/101 127/144/101 129/143/101 125/136/101
f 124/142/102 128/141/102 127/144/102 123/135/102
f 135/108/103 97/107/103 133/103/103 139/110/103
f 137/60/104 100/17/104 134/104/104 140/109/104
f 97/107/105 99/106/105 134/104/105 133/103/105
f 93/145/106 131/101/106 132/102/106 95/146/106
f 96/13/107 137/60/107 140/109/107 132/102/107
f 93/145/108 135/108/108 139/110/108 131/101/108
f 131/101/109 139/110/109 138/25/109 94/14/109
f 132/102/110 140/109/110 136/105/110 95/146/110
f 95/146/71 136/105/71 135/108/71 93/145/71
f 141/147/111 143/148/111 144/149/111 142/150/111
f 147/151/112 151/152/112 152/153/112 148/154/112
f 149/155/105 150/156/105 152/153/105 151/152/105
f 148/154/113 152/153/113 150/156/113 146/157/113
f 145/158/114 149/155/114 151/152/114 147/151/114
f 146/157/115 150/156/115 149/155/115 145/158/115
f 153/159/116 155/160/116 156/161/116 154/162/116
f 157/163/105 158/164/105 160/165/105 159/166/105
f 162/167/117 159/166/117 160/165/117 161/168/117
f 161/168/118 160/165/118 158/164/118 163/169/118
f 159/166/119 166/170/119 165/171/119 157/163/119
f 163/169/120 158/164/120 157/163/120 164/172/120
f 154/162/120 163/169/120 164/172/120 153/159/120
f 153/159/121 164/172/121 162/167/121 155/160/121
f 156/161/118 161/168/118 163/169/118 154/162/118
f 155/160/117 162/167/117 161/168/117 156/161/117
f 168/173/121 165/171/121 166/170/121 167/174/121
f 164/172/122 168/173/122 167/174/122 162/167/122
f 157/163/123 165/171/123 168/173/123 164/172/123
f 162/167/124 167/174/124 166/170/124 159/166/124
f 105/125/125 171/133/125 174/129/125 115/124/125
f 108/123/126 169/118/126 173/134/126 116/119/126
f 116/119/127 173/134/127 172/130/127 106/120/127
f 106/120/128 172/130/128 171/133/128 105/125/128
f 115/124/129 174/129/129 170/115/129 107/122/129
f 107/122/130 170/115/130 169/118/130 108/123/130
f 142/150/131 177/175/131 178/176/131 141/147/131
f 141/147/132 178/176/132 176/177/132 143/148/132
f 144/149/133 175/178/133 177/175/133 142/150/133
f 143/148/134 176/177/134 175/178/134 144/149/134
f 178/176/135 177/175/135 175/178/135 176/177/135
f 146/157/136 145/158/136 147/151/136 148/154/136
